<svg xmlns="http://www.w3.org/2000/svg" viewBox="0 0 1280 640"><defs><style>.a{fill:#fff;}.b{fill:none;stroke:#fff;stroke-miterlimit:10;stroke-width:8px;}</style></defs><rect width="1280" height="640"/><path class="a" d="M136,102h40v8H144v24h32v8H144v16h-8Zm40,8h8v24h-8Z"/><path class="a" d="M200,150h16V110H200v-8h24v48h16v8H200Z"/><path class="a" d="M264,142h8v8h-8Zm8-24h32v8H272Zm0,16h32v-8h8v32h-8v-8h-8v-8H272Zm0,16h24v8H272Z"/><path class="a" d="M328,118h8v8h-8Zm8,8h8v8h-8Zm0,24h24v8H336Zm8-16h16v8H344Zm16,8h8v8h-8Zm8-24h8v24h-8Z"/><path class="a" d="M392,126h8v8h32v-8h8v16H400v8h-8Zm8-8h32v8H400Zm0,32h32v8H400Z"/><path class="a" d="M456,118h8v8h8v8h-8v24h-8Zm16,0h24v8H472Zm24,8h8v16h-8Z"/><path class="a" d="M584,110h8v16h-8Zm0,32h8v8h-8Zm8-40h32v8H592Zm0,24h32v8H592Zm0,24h32v8H592Zm32-40h8v8h-8Zm0,24h8v16h-8Z"/><path class="a" d="M648,142h8v8h-8Zm8-24h32v8H656Zm0,16h32v-8h8v32h-8v-8h-8v-8H656Zm0,16h24v8H656Z"/><path class="a" d="M712,118h8v8h8v8h-8v24h-8Zm16,0h24v8H728Zm24,8h8v32h-8Z"/><path class="a" d="M776,126h8v8h-8Zm0,24h40v8H776Zm8-32h40v8H784Zm0,16h32v8H784Zm32,8h8v8h-8Z"/><path class="a" d="M904,158h-8V102h8v8h8v8h-8Zm8-40h8v16h-8Zm8,16h8v8h-8Zm8-16h8v16h-8Zm8-8h8v-8h8v56h-8V118h-8Z"/><path class="a" d="M968,126h8v24h-8Zm8-8h32v8H976Zm0,32h32v8H976Zm32-24h8v24h-8Z"/><path class="a" d="M1032,118h8v8h8v8h-8v24h-8Zm16,0h24v8h-24Zm24,8h8v32h-8Z"/><path class="a" d="M1096,126h8v24h-8Zm8-8h32v8h-32Zm0,32h32v8h-32Zm32-24h8v24h-8Z"/><path class="a" d="M176,182v8h8v24h-8v8H144v16H128V182Zm-16,32v-8h8v-8h-8v-8H144v24Z"/><path class="a" d="M192,230h16V190H192v-8h32v48h16v8H192Z"/><path class="a" d="M264,230h-8v-8h8v-8h32v-8H264v-8h40v8h8v32h-8v-8h-8v-8H280v8h16v8H264Z"/><path class="a" d="M328,230h24v-8H336v-8h-8v-8h-8v-8h24v8h8v8h8V198h16v24h-8v8h-8v8H328Z"/><path class="a" d="M392,230h-8V206h8v-8h40v8h8v16H400v8h32v8H392Zm32-16v-8H400v8Z"/><path class="a" d="M456,198v8h8v-8h32v8h8v16h-8v-8h-8v-8H472v8h-8v24H448V198Z"/><path class="a" d="M592,190v8h16v8h16v8h8v16h-8v8H584v-8h-8v-8h16v8h24v-8H600v-8H584v-8h-8V190h8v-8h40v8h8v8H616v-8Z"/><path class="a" d="M648,230h-8v-8h8v-8h32v-8H648v-8h40v8h8v32h-8v-8h-8v-8H664v8h16v8H648Z"/><path class="a" d="M704,198h8v8h8v-8h32v8h8v32H744V206H728v8h-8v24H704Z"/><path class="a" d="M768,230h32v-8H776v-8h-8v-8h8v-8h48v8H792v8h24v8h8v8h-8v8H768Z"/><path class="a" d="M896,182h16v8h8v16h-8v32H896Zm24,24h8v16h-8Zm8-16h8v-8h16v56H936V206h-8Z"/><path class="a" d="M968,206v-8h40v8h8v24h-8v8H968v-8h-8V206Zm32,24V206H976v24Z"/><path class="a" d="M1024,198h8v8h8v-8h32v8h8v32h-16V206h-16v8h-8v24h-16Z"/><path class="a" d="M1096,206v-8h40v8h8v24h-8v8h-40v-8h-8V206Zm32,24V206h-24v24Z"/><path class="a" d="M128,294h8V278h8V262h32v8h8v16h-8v8h-8v8H144v16H128Zm32,0v-8h8V270h-8v8h-8v16Z"/><path class="a" d="M216,278h8v-8H208v-8h24v8h8v16h-8v8h-8v16h16v8H216v-8h-8V286h8Z"/><path class="a" d="M280,286v8h-8v16h16v8H264v-8h-8V294h8v-8h8v-8h32v8h8v16h-8v16h-8v-8h-8v-8h8V286Z"/><path class="a" d="M320,302h8v8h-8Zm8,8h16v-8h-8V286h-8v-8h16v8h8v16h8v-8h8V278h8v24h-8v8h-8v8H328Z"/><path class="a" d="M400,310h24v8H392v-8h-8V294h8v-8h8v-8h32v8h8v8h-8v8H400Zm24-16v-8H408v8Z"/><path class="a" d="M448,302h8V278h16v8h8v8h-8v8h-8v16H448Zm32-24h16v8h8v16h-8v-8h-8v-8h-8Z"/><path class="a" d="M584,294v8h8v8h16v-8h-8v-8h-8v-8h-8V270h8v-8h32v8h8v8H616v-8H600v8h8v8h8v8h8v16h-8v8H584v-8h-8V294Z"/><path class="a" d="M664,286v8h-8v16h16v8H648v-8h-8V294h8v-8h8v-8h32v8h8v16h-8v16h-8v-8h-8v-8h8V286Z"/><path class="a" d="M704,302h8V278h16v8h8v8h-8v8h-8v16H704Zm32,0h8V286h-8v-8h16v8h8v16h-8v16H736Z"/><path class="a" d="M768,302h8v8h-8Zm8,8h16v-8h-8v-8h-8v-8h8v-8h32v8H800v8h8v8h8v8h-8v8H776Zm40-24h8v8h-8Z"/><path class="a" d="M896,294h8V278h8V262h8v8h8v8h8v-8h8v-8h8v56H936V286h-8v8h-8v-8h-8v16h-8v16h-8Z"/><path class="a" d="M960,310V294h8v-8h8v-8h32v8h8v16h-8v8h-8v8H968v-8Zm32,0v-8h8V286H984v8h-8v16Z"/><path class="a" d="M1024,302h8V278h16v8h8v8h-8v8h-8v16h-16Zm32,0h8V286h-8v-8h16v8h8v16h-8v16h-16Z"/><path class="a" d="M1088,310V294h8v-8h8v-8h32v8h8v16h-8v8h-8v8h-32v-8Zm32,0v-8h8V286h-16v8h-8v16Z"/><path class="a" d="M176,342v8h8v24h-8v8H152v16H128V342Zm-16,24v-8h-8v8Z"/><path class="a" d="M192,390h16V350H192v-8h40v48h16v8H192Z"/><path class="a" d="M264,390h-8V366h8v-8h48v40h-8v-8h-8v8H264Zm24-8v-8h-8v8Z"/><path class="a" d="M320,390h16v-8h-8v-8h-8V358h24v8h8v-8h24v24h-8v8h-8v8H320Z"/><path class="a" d="M392,390h-8V366h8v-8h40v8h8v16H408v8h24v8H392Zm24-16v-8h-8v8Z"/><path class="a" d="M464,358v8h8v-8h24v8h8v16H480v-8h-8v24H448V358Z"/><path class="a" d="M608,350v8h8v8h8v8h8v16h-8v8H584v-8h-8v-8h16v8h8v-8h-8v-8h-8v-8h-8V350h8v-8h40v8h8v8H616v-8Z"/><path class="a" d="M648,390h-8V366h8v-8h48v40h-8v-8h-8v8H648Zm24-8v-8h-8v8Z"/><path class="a" d="M704,358h8v8h8v-8h32v8h8v32H736V382h-8v16H704Z"/><path class="a" d="M768,390h16v-8h-8v-8h-8v-8h8v-8h48v8H808v8h8v8h8v8h-8v8H768Z"/><path class="a" d="M896,342h16v8h8v8h8v-8h8v-8h16v56H936v-8h-8v8h-8v-8h-8v8H896Z"/><path class="a" d="M968,366v-8h40v8h8v24h-8v8H968v-8h-8V366Zm24,16v-8h-8v8Z"/><path class="a" d="M1024,358h8v8h8v-8h32v8h8v32h-24V382h-8v16h-24Z"/><path class="a" d="M1096,366v-8h40v8h8v24h-8v8h-40v-8h-8V366Zm24,16v-8h-8v8Z"/><path class="a" d="M148,452H136v4h-4V436h4v12h12V436h4v20h-4Zm-12-20h4v4h-4Zm4-4h4v4h-4Zm4,4h4v4h-4Z"/><path class="a" d="M164,436h4v4h4v4h-4v12h-4Zm8,0h12v4H172Zm12,4h4v16h-4Z"/><path class="a" d="M228,440h4v12h-4Zm4-4h16v4H232Zm0,16h16v4H232Zm16-12h4v12h-4Z"/><path class="a" d="M260,436h4v4h4v4h-4v4h16v4H264v4h-4Zm8,0h12v4H268Zm12,4h4v8h-4Z"/><path class="a" d="M292,440h4v4h16v-4h4v8H296v4h-4Zm4-4h16v4H296Zm0,16h16v4H296Z"/><path class="a" d="M324,436h4v4h4v4h-4v12h-4Zm8,0h12v4H332Zm12,4h4v16h-4Z"/><path class="a" d="M360,440h12v4H360Z"/><path class="a" d="M388,440h4v4h-4Zm0,12h20v4H388Zm4-16h20v4H392Zm0,8h16v4H392Zm16,4h4v4h-4Z"/><path class="a" d="M420,440h4v12h-4Zm4-4h16v4H424Zm0,16h16v4H424Zm16-12h4v12h-4Z"/><path class="a" d="M452,436h4v16h-4Zm4,16h16v4H456Zm16-16h4v16h-4Z"/><path class="a" d="M484,436h4v4h4v4h-4v12h-4Zm8,0h12v4H492Zm12,4h4v8h-4Z"/><path class="a" d="M516,440h4v12h-4Zm4-4h16v4H520Zm0,16h16v4H520Zm16-12h4v4h-4Zm0,8h4v4h-4Z"/><path class="a" d="M548,440h4v4h16v-4h4v8H552v4h-4Zm4-4h16v4H552Zm0,16h16v4H552Z"/><path class="a" d="M616,432v8h-4v-8Zm-4,12h4v8h-4Zm4-16h12v4H616Zm0,12h12v4H616Zm0,12h12v4H616Zm12-20h4v8h-4Zm0,12h4v8h-4Z"/><path class="a" d="M644,436h4v4h-4Zm0,16h4v4h-4Zm4-12h4v4h-4Zm0,8h4v4h-4Zm4-4h8v4h-8Zm12,0h-4v-4h4Zm-4,4h4v4h-4Zm4-12h4v4h-4Zm0,16h4v4h-4Z"/><path class="a" d="M680,432v8h-4v-8Zm-4,12h4v8h-4Zm4-16h12v4H680Zm0,12h12v4H680Zm0,12h12v4H680Zm12-20h4v8h-4Zm0,12h4v8h-4Z"/><path class="a" d="M740,436h4v4h4v4h-4v4h16v4H744v4h-4Zm8,0h12v4H748Zm12,4h4v8h-4Z"/><path class="a" d="M776,436h12v16h8v4H776v-4h8V440h-8Zm4-8h8v4h-8Z"/><path class="a" d="M804,436h4v4h-4Zm0,16h4v4h-4Zm4-12h4v4h-4Zm0,8h4v4h-4Zm4-4h8v4h-8Zm12,0h-4v-4h4Zm-4,4h4v4h-4Zm4-12h4v4h-4Zm0,16h4v4h-4Z"/><path class="a" d="M836,440h4v4h16v-4h4v8H840v4h-4Zm4-4h16v4H840Zm0,16h16v4H840Z"/><path class="a" d="M868,452h8V432h-8v-4h12v24h8v4H868Z"/><path class="a" d="M936,432h4v8h8v4h-8v12h-4V444h-4v-4h4Zm4-4h12v4H940Zm12,4h4v4h-4Z"/><path class="a" d="M964,440h4v12h-4Zm4-4h16v4H968Zm0,16h16v4H968Zm16-12h4v12h-4Z"/><path class="a" d="M996,436h4v4h4v4h-4v12h-4Zm8,0h12v4h-12Zm12,4h4v16h-4Z"/><path class="a" d="M1028,440v-4h4v-8h4v8h12v4h-12v12h-4V440Zm8,12h12v4h-12Zm12-4h4v4h-4Z"/><path class="a" d="M136,472h4v8h8v4h-8v12h-4V484h-4v-4h4Zm4-4h12v4H140Zm12,4h4v4h-4Z"/><path class="a" d="M164,488h4v4h-4Zm4-12h16v4H168Zm0,8h16v-4h4v16h-4v-4h-4v-4H168Zm0,8h12v4H168Z"/><path class="a" d="M192,476h4v4h4v4h-4v12h-4Zm8,0h4v4h-4Zm4,4h4v16h-4Zm4-4h8v4h-8Zm8,4h4v16h-4Z"/><path class="a" d="M232,476h12v16h8v4H232v-4h8V480h-8Zm4-8h8v4h-8Z"/><path class="a" d="M260,492h8V472h-8v-4h12v24h8v4H260Z"/><path class="a" d="M292,476h4v4h-4Zm4,4h4v4h-4Zm0,12h12v4H296Zm4-8h8v4h-8Zm8,4h4v4h-4Zm4-12h4v12h-4Z"/><path class="a" d="M360,472h4v8h8v4h-8v12h-4V484h-4v-4h4Zm4-4h12v4H364Zm12,4h4v4h-4Z"/><path class="a" d="M388,480h4v12h-4Zm4-4h16v4H392Zm0,16h16v4H392Zm16-12h4v12h-4Z"/><path class="a" d="M420,476h4v4h4v4h-4v12h-4Zm8,0h12v4H428Zm12,4h4v8h-4Z"/><path class="a" d="M484,480h4v4h-4Zm0,12h20v4H484Zm4-8h12v-4h4v-4h4v16h-4v-4H488Zm0-8h12v4H488Z"/><path class="a" d="M516,488h4v4h-4Zm4-12h16v4H520Zm0,8h16v-4h4v16h-4v-4h-4v-4H520Zm0,8h12v4H520Z"/><path class="a" d="M544,476h4v4h4v4h-4v12h-4Zm8,0h4v4h-4Zm4,4h4v16h-4Zm4-4h8v4h-8Zm8,4h4v16h-4Z"/><path class="a" d="M580,480h4v4h16v-4h4v8H584v4h-4Zm4-4h16v4H584Zm0,16h16v4H584Z"/><path class="a" d="M644,480h4v12h-4Zm24-12v28H648v-4h16v-8h-4v-4h4V468Zm-20,8h12v4H648Z"/><path class="a" d="M676,480h4v4h16v-4h4v8H680v4h-4Zm4-4h16v4H680Zm0,16h16v4H680Z"/><path class="a" d="M712,476v12h-4V476Zm0,12h4v4h-4Zm4,4h8v4h-8Zm8-4h4v4h-4Zm4-12h4v12h-4Z"/><path class="a" d="M740,480h4v4h-4Zm0,12h20v4H740Zm4-16h20v4H744Zm0,8h16v4H744Zm16,4h4v4h-4Z"/><path class="a" d="M772,492h4v4h-4Zm4-4h4v4h-4Z"/><path class="a" d="M840,476v12h-4V476Zm0,12h4v8h-4Zm4-8h8v8h-8Zm8,8h4v8h-4Zm4-12h4v12h-4Z"/><path class="a" d="M872,476h12v16h8v4H872v-4h8V480h-8Zm4-8h8v4h-8Z"/><path class="a" d="M900,480v-4h4v-8h4v8h12v4H908v12h-4V480Zm8,12h12v4H908Zm12-4h4v4h-4Z"/><path class="a" d="M932,468h4v12h4v4h-4v12h-4Zm8,8h12v4H940Zm12,4h4v16h-4Z"/><path class="a" d="M996,488h4v4h-4Zm4-12h16v4h-16Zm0,8h16v-4h4v16h-4v-4h-4v-4h-12Zm0,8h12v4h-12Z"/><path class="a" d="M1028,476h4v4h4v4h-4v12h-4Zm8,0h12v4h-12Zm12,4h4v16h-4Z"/><path class="a" d="M136,512v8h-4v-8Zm-4,12h4v8h-4Zm4-16h12v4H136Zm0,12h12v4H136Zm0,12h12v4H136Zm12-20h4v8h-4Zm0,12h4v8h-4Z"/><path class="a" d="M164,516h4v4h-4Zm0,16h4v4h-4Zm4-12h4v4h-4Zm0,8h4v4h-4Zm4-4h8v4h-8Zm12,0h-4v-4h4Zm-4,4h4v4h-4Zm4-12h4v4h-4Zm0,16h4v4h-4Z"/><path class="a" d="M196,532h8V516h-8v-4h8v-4h4v24h8v4H196Z"/><path class="a" d="M228,512h4v4h-4Zm0,16h4v4h-4Zm4-20h12v4H232Zm0,24h12v4H232Zm4-12h8v4h-8Zm8-8h4v8h-4Zm0,12h4v8h-4Z"/><path class="a" d="M296,508h4v24h16v4H296Z"/><path class="a" d="M324,528h4v4h-4Zm4-12h16v4H328Zm0,8h16v-4h4v16h-4v-4h-4v-4H328Zm0,8h12v4H328Z"/><path class="a" d="M356,520v-4h4v-8h4v8h12v4H364v12h-4V520Zm8,12h12v4H364Zm12-4h4v4h-4Z"/><path class="a" d="M392,516h12v16h8v4H392v-4h8V520h-8Zm4-8h8v4h-8Z"/><path class="a" d="M420,516h4v4h4v4h-4v12h-4Zm8,0h12v4H428Zm12,4h4v16h-4Z"/><path class="a" d="M484,508h24v4H488v4h12v4H488v12h20v4H484Z"/><path class="a" d="M516,516h4v4h-4Zm0,16h4v4h-4Zm4-12h4v4h-4Zm0,8h4v4h-4Zm4-4h8v4h-8Zm12,0h-4v-4h4Zm-4,4h4v4h-4Zm4-12h4v4h-4Zm0,16h4v4h-4Z"/><path class="a" d="M548,520v-4h4v-8h4v8h12v4H556v12h-4V520Zm8,12h12v4H556Zm12-4h4v4h-4Z"/><path class="a" d="M580,520h4v4h16v-4h4v8H584v4h-4Zm4-4h16v4H584Zm0,16h16v4H584Z"/><path class="a" d="M612,516h4v4h4v4h-4v12h-4Zm8,0h12v4H620Zm12,4h4v16h-4Z"/><path class="a" d="M644,520h4v12h-4Zm24-12v28H648v-4h16v-8h-4v-4h4V508Zm-20,8h12v4H648Z"/><path class="a" d="M676,520h4v4h16v-4h4v8H680v4h-4Zm4-4h16v4H680Zm0,16h16v4H680Z"/><path class="a" d="M708,520h4v12h-4Zm24-12v28H712v-4h16v-8h-4v-4h4V508Zm-20,8h12v4H712Z"/><path class="a" d="M772,520h4v4h-4Zm0,12h20v4H772Zm4-16h20v4H776Zm0,8h16v4H776Zm16,4h4v4h-4Z"/><path class="a" d="M804,520h4v4h16v-4h4v8H808v4h-4Zm4-4h16v4H808Zm0,16h16v4H808Z"/><path class="a" d="M836,520v-4h4v-8h4v8h12v4H844v12h-4V520Zm8,12h12v4H844Zm12-4h4v4h-4Z"/><path class="a" d="M868,532h4v4h-4Z"/><rect class="b" x="30" y="30" width="1220" height="580"/></svg>